<?xml version="1.0" encoding="utf-8"?>
<!-- Generator: Adobe Illustrator 16.0.0, SVG Export Plug-In . SVG Version: 6.00 Build 0)  -->
<!DOCTYPE svg PUBLIC "-//W3C//DTD SVG 1.1//EN" "http://www.w3.org/Graphics/SVG/1.1/DTD/svg11.dtd">
<svg version="1.1" xmlns="http://www.w3.org/2000/svg" xmlns:xlink="http://www.w3.org/1999/xlink" x="0px" y="0px" width="2000px"
	 height="2000px" viewBox="0 0 2000 2000" enable-background="new 0 0 2000 2000" xml:space="preserve">
<g id="Layer_1">
	<g>
		<path fill="#FFFFFF" stroke="#084973" stroke-width="25" stroke-miterlimit="10" d="M529.903,757.291
			c-25.211-60.204-37.817-125.634-37.817-196.293c0-140,49.497-259.498,148.49-358.492
			C739.53,103.552,859.008,54.075,999.009,54.075s259.499,49.477,358.492,148.431c98.993,98.994,148.49,218.491,148.49,358.492
			c0,59.881-9.05,116.016-27.152,168.403L999.777,1704.63L933.479,1571c-107.276,4.229-200.895,18.432-280.851,42.604
			c-96.985,29.349-145.477,64.763-145.477,106.239c0,41.48,48.489,76.875,145.477,106.186
			c96.945,29.348,213.979,44.021,351.104,44.021s254.158-14.674,351.104-44.021c96.944-29.311,145.417-64.702,145.417-106.186
			c0-41.479-48.473-76.894-145.417-106.239c-50.484-15.264-106.424-26.551-167.813-33.856l36.046-70.142
			c69.661,11.248,133.299,28.229,190.915,50.938c114.238,45.025,171.354,99.367,171.354,163.026
			c0,63.655-57.118,118-171.354,163.021c-114.237,44.987-252.151,67.48-413.739,67.48s-299.501-22.493-413.74-67.48
			c-114.238-45.021-171.354-99.366-171.354-163.021c0-63.659,57.116-118.001,171.354-163.026
			c88.955-35.061,192.262-56.47,309.92-64.229L556.582,811.091L529.903,757.291z M787.412,499.545
			c0,59.719,21.114,110.693,63.343,152.921c42.269,42.271,93.263,63.403,152.981,63.403c59.718,0,110.69-21.135,152.921-63.403
			c42.27-42.229,63.4-93.202,63.4-152.921s-21.134-110.712-63.4-152.981c-42.229-42.229-93.202-63.343-152.921-63.343
			c-59.722,0-110.713,21.115-152.981,63.343C808.526,388.833,787.412,439.826,787.412,499.545z"/>
		<path fill="#FFFFFF" stroke="#084973" stroke-width="25" stroke-miterlimit="10" d="M529.903,757.291
			c-25.211-60.204-37.817-125.634-37.817-196.293c0-140,49.497-259.498,148.49-358.492
			C739.53,103.552,859.008,54.075,999.009,54.075s259.499,49.477,358.492,148.431c98.993,98.994,148.49,218.491,148.49,358.492
			c0,59.881-9.05,116.016-27.152,168.403L999.777,1704.63L933.479,1571c-107.276,4.229-200.895,18.432-280.851,42.604
			c-96.985,29.349-145.477,64.763-145.477,106.239c0,41.48,48.489,76.875,145.477,106.186
			c96.945,29.348,213.979,44.021,351.104,44.021s254.158-14.674,351.104-44.021c96.944-29.311,145.417-64.702,145.417-106.186
			c0-41.479-48.473-76.894-145.417-106.239c-50.484-15.264-106.424-26.551-167.813-33.856l36.046-70.142
			c69.661,11.248,133.299,28.229,190.915,50.938c114.238,45.025,171.354,99.367,171.354,163.026
			c0,63.655-57.118,118-171.354,163.021c-114.237,44.987-252.151,67.48-413.739,67.48s-299.501-22.493-413.74-67.48
			c-114.238-45.021-171.354-99.366-171.354-163.021c0-63.659,57.116-118.001,171.354-163.026
			c88.955-35.061,192.262-56.47,309.92-64.229L556.582,811.091C546.512,793.646,537.619,775.714,529.903,757.291l26.679,53.8"/>
	</g>
</g>
<g id="Layer_2">
	<path fill="#084973" stroke="#FFFFFF" stroke-width="25" stroke-miterlimit="10" d="M787.412,499.545
		c0-59.719,21.114-110.712,63.343-152.981c42.269-42.229,93.263-63.343,152.981-63.343c59.718,0,110.69,21.115,152.921,63.343
		c42.27,42.269,63.4,93.262,63.4,152.981s-21.134,110.693-63.4,152.921c-42.229,42.271-93.202,63.403-152.921,63.403
		c-59.722,0-110.713-21.135-152.981-63.403C808.526,610.238,787.412,559.265,787.412,499.545z"/>
</g>
</svg>
