<?xml version="1.0" encoding="utf-8"?>
<!-- Generator: Adobe Illustrator 16.0.0, SVG Export Plug-In . SVG Version: 6.00 Build 0)  -->
<!DOCTYPE svg PUBLIC "-//W3C//DTD SVG 1.1//EN" "http://www.w3.org/Graphics/SVG/1.1/DTD/svg11.dtd">
<svg version="1.1" id="Layer_1" xmlns="http://www.w3.org/2000/svg" xmlns:xlink="http://www.w3.org/1999/xlink" x="0px" y="0px"
	 width="900px" height="900px" viewBox="0 0 900 900" enable-background="new 0 0 900 900" xml:space="preserve">
<g id="Layer_1_1_">
	<g>
		<path fill="#781024" d="M732.85,732.85C654.717,810.95,560.434,850,450,850c-110.467,0-204.75-39.05-282.85-117.15
			C89.05,654.75,50,560.467,50,450s39.05-204.75,117.15-282.85S339.533,50,450,50c110.434,0,204.717,39.05,282.85,117.15
			C810.95,245.25,850,339.533,850,450S810.95,654.75,732.85,732.85z"/>
		<path fill="none" stroke="#FFFFFF" stroke-width="2" stroke-linecap="round" stroke-linejoin="round" stroke-miterlimit="3" d="
			M732.85,732.85C654.717,810.95,560.434,850,450,850c-110.467,0-204.75-39.05-282.85-117.15C89.05,654.75,50,560.467,50,450
			s39.05-204.75,117.15-282.85S339.533,50,450,50c110.434,0,204.717,39.05,282.85,117.15C810.95,245.25,850,339.533,850,450
			S810.95,654.75,732.85,732.85z"/>
	</g>
</g>
<g id="Email">
	<g>
		<path fill="#FFFFFF" d="M176.2,627.4L408.5,445.05L176.2,627.4c-0.767-0.968-1.15-2.352-1.15-4.15V276.7
			c0-1.133,0.15-2.117,0.45-2.95l233,171.3l39.75,29.3l40.45-29.8l234.1-173l-234.1,173l-40.45,29.8l-39.75-29.3l-233-171.3
			c0.833-2.1,2.733-3.15,5.7-3.15h537.7c1.6,0,2.898,0.316,3.898,0.95c1.467,0.967,2.2,2.684,2.2,5.15v346.55
			c0,2.533-0.767,4.283-2.3,5.25l-234-183.95l234,183.95c-1,0.6-2.268,0.9-3.8,0.9H181.2C178.934,629.4,177.267,628.733,176.2,627.4
			z"/>
		<path fill="none" stroke="#781024" stroke-width="15" stroke-linecap="round" stroke-linejoin="round" stroke-miterlimit="3" d="
			M722.8,271.55c-1-0.633-2.3-0.95-3.898-0.95H181.2c-2.967,0-4.867,1.05-5.7,3.15l233,171.3l39.75,29.3l40.45-29.8L722.8,271.55z
			 M722.7,628.5c1.533-0.967,2.3-2.717,2.3-5.25V276.7c0-2.467-0.733-4.184-2.2-5.15 M176.2,627.4c1.066,1.333,2.733,2,5,2h537.7
			c1.532,0,2.8-0.302,3.8-0.9l-234-183.95 M175.5,273.75c-0.3,0.833-0.45,1.817-0.45,2.95v346.55c0,1.8,0.384,3.184,1.15,4.15
			L408.5,445.05"/>
	</g>
</g>
</svg>
