<?xml version="1.0" encoding="utf-8"?>
<!-- Generator: Adobe Illustrator 16.0.0, SVG Export Plug-In . SVG Version: 6.00 Build 0)  -->
<!DOCTYPE svg PUBLIC "-//W3C//DTD SVG 1.1//EN" "http://www.w3.org/Graphics/SVG/1.1/DTD/svg11.dtd">
<svg version="1.1" xmlns="http://www.w3.org/2000/svg" xmlns:xlink="http://www.w3.org/1999/xlink" x="0px" y="0px" width="500px"
	 height="500px" viewBox="0 0 500 500" enable-background="new 0 0 500 500" xml:space="preserve">
<g id="Layer_1">
	<g>
		<path fill-rule="evenodd" clip-rule="evenodd" fill="#710421" d="M487.9,250c0,65.7-23.233,121.767-69.7,168.2
			c-46.434,46.467-102.5,69.7-168.2,69.7s-121.783-23.233-168.25-69.7C35.317,371.767,12.1,315.7,12.1,250
			S35.317,128.217,81.75,81.75C128.217,35.317,184.3,12.1,250,12.1s121.767,23.217,168.2,69.65
			C464.667,128.217,487.9,184.3,487.9,250z"/>
		
			<path fill-rule="evenodd" clip-rule="evenodd" fill="none" stroke="#710421" stroke-linecap="round" stroke-linejoin="round" stroke-miterlimit="3" d="
			M487.9,250c0,65.7-23.233,121.767-69.7,168.2c-46.434,46.467-102.5,69.7-168.2,69.7s-121.783-23.233-168.25-69.7
			C35.317,371.767,12.1,315.7,12.1,250S35.317,128.217,81.75,81.75C128.217,35.317,184.3,12.1,250,12.1s121.767,23.217,168.2,69.65
			C464.667,128.217,487.9,184.3,487.9,250z"/>
	</g>
</g>
<g id="Layer_3">
	<g>
		<path fill-rule="evenodd" clip-rule="evenodd" fill="#FFFFFF" d="M390.15,141.8v118.15C381.05,330.25,335.2,380.333,252.6,410.2
			c-0.267,0.1-0.55,0.2-0.85,0.3c-0.167,0.033-0.35,0.066-0.55,0.1h-1.65c-0.167-0.033-0.316-0.05-0.45-0.05l-0.1-0.05
			c-0.3-0.1-0.583-0.2-0.85-0.3c-82.6-29.867-128.433-79.95-137.5-150.25V141.8c0.1-0.7,0.4-1.3,0.9-1.8
			c0.667-0.633,1.467-0.95,2.4-0.95c0.233,0,0.45,0.017,0.65,0.05c46.2-1.167,90.483-16.967,132.85-47.4
			c0.033-0.034,0.083-0.083,0.15-0.15c0.433-0.433,0.917-0.767,1.45-1c0.4-0.2,0.833-0.316,1.3-0.35h0.051
			c0.433,0.033,0.866,0.15,1.3,0.35c0.533,0.233,1.017,0.567,1.45,1c0.066,0.067,0.116,0.117,0.149,0.15
			c42.367,30.433,86.667,46.233,132.9,47.4c0.2-0.033,0.416-0.05,0.649-0.05c0.934,0,1.733,0.317,2.4,0.95
			C389.75,140.5,390.05,141.1,390.15,141.8z M218.8,319h24.3V188.8h-54.75l31.35,71.95h1.65c-0.067,1.1-0.15,2.167-0.25,3.2
			c-0.967,9.033-4.783,16.883-11.45,23.55c-7.833,7.833-17.267,11.75-28.3,11.75s-20.467-3.917-28.3-11.75
			c-6.5-6.5-10.283-14.134-11.35-22.9c-0.167-1.267-0.267-2.55-0.3-3.85h1.95L175,188.8h-0.05c-1.2-0.267-2.25-0.85-3.15-1.75
			c-1.233-1.233-1.85-2.75-1.85-4.55c0-1.767,0.617-3.283,1.85-4.55c1.233-1.233,2.717-1.867,4.45-1.9h66.85v-18.2
			c0.033-1.967,0.767-3.667,2.2-5.1c1.467-1.467,3.233-2.2,5.3-2.2c2.067,0,3.834,0.733,5.301,2.2
			c1.433,1.433,2.166,3.133,2.199,5.1v18.2h68.5c1.667,0.034,3.117,0.667,4.351,1.9c1.267,1.267,1.899,2.783,1.899,4.55
			c0,1.8-0.633,3.317-1.899,4.55c-0.9,0.9-1.934,1.483-3.101,1.75h-0.25l31.351,71.95h1.649c-0.066,1.1-0.149,2.167-0.25,3.2
			c-0.966,9.033-4.783,16.883-11.449,23.55c-7.834,7.833-17.267,11.75-28.301,11.75c-11.033,0-20.466-3.917-28.3-11.75
			c-6.5-6.5-10.283-14.134-11.35-22.9c-0.167-1.267-0.267-2.55-0.3-3.85h1.949l31.65-71.95H258.1V319H282.2h2.6
			c3.533,0.267,6.601,1.7,9.2,4.3c2.934,2.934,4.4,6.45,4.4,10.55c0,1.634-0.233,3.184-0.7,4.65h-94.4
			c-0.466-1.467-0.7-3.017-0.7-4.65c0-4.1,1.45-7.616,4.35-10.55c2.633-2.6,5.716-4.033,9.25-4.3H218.8z M377.15,149.55
			c-42.967-0.8-84.717-15.216-125.25-43.25l-0.051-0.05c-0.233-0.2-0.483-0.367-0.75-0.5c-0.1-0.033-0.216-0.067-0.35-0.1
			c-0.1-0.033-0.217-0.05-0.35-0.05h-0.051c-0.133,0-0.25,0.017-0.35,0.05c-0.133,0.033-0.25,0.067-0.35,0.1
			c-0.267,0.133-0.517,0.3-0.75,0.5l-0.05,0.05c-40.533,28.034-82.283,42.45-125.25,43.25c-0.367,0-0.717,0-1.05,0
			c-0.267,0.067-0.517,0.217-0.75,0.45c-0.267,0.267-0.433,0.567-0.5,0.9l0.95,109.5c8.7,61.833,50.7,107.616,126,137.35
			c0.333,0.134,0.683,0.267,1.05,0.4c0.233,0.066,0.483,0.1,0.75,0.1h0.75c0.233,0,0.45-0.033,0.65-0.1
			c0.366-0.134,0.717-0.267,1.05-0.4c75.3-29.733,117.3-75.517,126-137.35l0.95-109.5c-0.066-0.333-0.233-0.633-0.5-0.9
			c-0.233-0.233-0.483-0.383-0.75-0.45C377.866,149.55,377.517,149.55,377.15,149.55z M183.35,204.75h-3.2l-24.3,56h51.75
			L183.35,204.75z M322.6,204.75H319.4l-24.301,56h51.75L322.6,204.75z"/>
		
			<path fill-rule="evenodd" clip-rule="evenodd" fill="none" stroke="#FFFFFF" stroke-linecap="round" stroke-linejoin="round" stroke-miterlimit="3" d="
			M390.15,141.8v118.15C381.05,330.25,335.2,380.333,252.6,410.2c-0.267,0.1-0.55,0.2-0.85,0.3c-0.167,0.033-0.35,0.066-0.55,0.1
			h-1.65c-0.167-0.033-0.316-0.05-0.45-0.05l-0.1-0.05c-0.3-0.1-0.583-0.2-0.85-0.3c-82.6-29.867-128.433-79.95-137.5-150.25V141.8
			c0.1-0.7,0.4-1.3,0.9-1.8c0.667-0.633,1.467-0.95,2.4-0.95c0.233,0,0.45,0.017,0.65,0.05c46.2-1.167,90.483-16.967,132.85-47.4
			c0.033-0.034,0.083-0.083,0.15-0.15c0.433-0.433,0.917-0.767,1.45-1c0.4-0.2,0.833-0.316,1.3-0.35h0.051
			c0.433,0.033,0.866,0.15,1.3,0.35c0.533,0.233,1.017,0.567,1.45,1c0.066,0.067,0.116,0.117,0.149,0.15
			c42.367,30.433,86.667,46.233,132.9,47.4c0.2-0.033,0.416-0.05,0.649-0.05c0.934,0,1.733,0.317,2.4,0.95
			C389.75,140.5,390.05,141.1,390.15,141.8z M218.8,319h24.3V188.8h-54.75l31.35,71.95h1.65c-0.067,1.1-0.15,2.167-0.25,3.2
			c-0.967,9.033-4.783,16.883-11.45,23.55c-7.833,7.833-17.267,11.75-28.3,11.75s-20.467-3.917-28.3-11.75
			c-6.5-6.5-10.283-14.134-11.35-22.9c-0.167-1.267-0.267-2.55-0.3-3.85h1.95L175,188.8h-0.05c-1.2-0.267-2.25-0.85-3.15-1.75
			c-1.233-1.233-1.85-2.75-1.85-4.55c0-1.767,0.617-3.283,1.85-4.55c1.233-1.233,2.717-1.867,4.45-1.9h66.85v-18.2
			c0.033-1.967,0.767-3.667,2.2-5.1c1.467-1.467,3.233-2.2,5.3-2.2c2.067,0,3.834,0.733,5.301,2.2
			c1.433,1.433,2.166,3.133,2.199,5.1v18.2h68.5c1.667,0.034,3.117,0.667,4.351,1.9c1.267,1.267,1.899,2.783,1.899,4.55
			c0,1.8-0.633,3.317-1.899,4.55c-0.9,0.9-1.934,1.483-3.101,1.75h-0.25l31.351,71.95h1.649c-0.066,1.1-0.149,2.167-0.25,3.2
			c-0.966,9.033-4.783,16.883-11.449,23.55c-7.834,7.833-17.267,11.75-28.301,11.75c-11.033,0-20.466-3.917-28.3-11.75
			c-6.5-6.5-10.283-14.134-11.35-22.9c-0.167-1.267-0.267-2.55-0.3-3.85h1.949l31.65-71.95H258.1V319H282.2
			c0.434-0.033,0.866-0.05,1.3-0.05s0.866,0.017,1.3,0.05c3.533,0.267,6.601,1.7,9.2,4.3c2.934,2.934,4.4,6.45,4.4,10.55
			c0,1.634-0.233,3.184-0.7,4.65h-94.4c-0.466-1.467-0.7-3.017-0.7-4.65c0-4.1,1.45-7.616,4.35-10.55
			c2.633-2.6,5.716-4.033,9.25-4.3c0.433-0.033,0.867-0.05,1.3-0.05S218.367,318.967,218.8,319z M377.15,149.55
			c-42.967-0.8-84.717-15.216-125.25-43.25l-0.051-0.05c-0.233-0.2-0.483-0.367-0.75-0.5c-0.1-0.033-0.216-0.067-0.35-0.1
			c-0.1-0.033-0.217-0.05-0.35-0.05h-0.051c-0.133,0-0.25,0.017-0.35,0.05c-0.133,0.033-0.25,0.067-0.35,0.1
			c-0.267,0.133-0.517,0.3-0.75,0.5l-0.05,0.05c-40.533,28.034-82.283,42.45-125.25,43.25c-0.367,0-0.717,0-1.05,0
			c-0.267,0.067-0.517,0.217-0.75,0.45c-0.267,0.267-0.433,0.567-0.5,0.9l0.95,109.5c8.7,61.833,50.7,107.616,126,137.35
			c0.333,0.134,0.683,0.267,1.05,0.4c0.233,0.066,0.483,0.1,0.75,0.1h0.75c0.233,0,0.45-0.033,0.65-0.1
			c0.366-0.134,0.717-0.267,1.05-0.4c75.3-29.733,117.3-75.517,126-137.35l0.95-109.5c-0.066-0.333-0.233-0.633-0.5-0.9
			c-0.233-0.233-0.483-0.383-0.75-0.45C377.866,149.55,377.517,149.55,377.15,149.55z M322.6,204.75l24.25,56H295.1l24.301-56H322.6
			z M183.35,204.75l24.25,56h-51.75l24.3-56H183.35z M216.2,319h2.6 M282.2,319h2.6"/>
	</g>
</g>
</svg>
