<?xml version="1.0" encoding="utf-8"?>
<!-- Generator: Adobe Illustrator 16.0.0, SVG Export Plug-In . SVG Version: 6.00 Build 0)  -->
<!DOCTYPE svg PUBLIC "-//W3C//DTD SVG 1.1//EN" "http://www.w3.org/Graphics/SVG/1.1/DTD/svg11.dtd">
<svg version="1.1" id="Layer_1" xmlns="http://www.w3.org/2000/svg" xmlns:xlink="http://www.w3.org/1999/xlink" x="0px" y="0px"
	 width="900px" height="900px" viewBox="0 0 900 900" enable-background="new 0 0 900 900" xml:space="preserve">
<g id="Layer_1_1_">
	<g>
		<path fill="#781024" d="M732.85,732.85C654.717,810.95,560.434,850,450,850c-110.467,0-204.75-39.05-282.85-117.15
			C89.05,654.75,50,560.467,50,450s39.05-204.75,117.15-282.85S339.533,50,450,50c110.434,0,204.717,39.05,282.85,117.15
			C810.95,245.25,850,339.533,850,450S810.95,654.75,732.85,732.85z"/>
		<path fill="none" stroke="#FFFFFF" stroke-width="2" stroke-linecap="round" stroke-linejoin="round" stroke-miterlimit="3" d="
			M732.85,732.85C654.717,810.95,560.434,850,450,850c-110.467,0-204.75-39.05-282.85-117.15C89.05,654.75,50,560.467,50,450
			s39.05-204.75,117.15-282.85S339.533,50,450,50c110.434,0,204.717,39.05,282.85,117.15C810.95,245.25,850,339.533,850,450
			S810.95,654.75,732.85,732.85z"/>
	</g>
</g>
<g id="Facebook">
	<g>
		<path fill="#FFFFFF" d="M376.35,259.3c2.533-21.5,11.75-40.25,27.65-56.25c16.9-16.8,36.883-26.15,59.95-28.05H581.2v99.1H509.85
			c-3.365,1.467-6.482,3.633-9.35,6.5c-3.366,3.367-5.783,7.1-7.25,11.2v62.9h89.55l-8.6,94.149h-80.95v276.2h-116.9v-276.2h-59.1
			V354.7h59.1V259.3z"/>
		<path fill="none" stroke="#FFFFFF" stroke-width="0.1" stroke-linecap="round" stroke-linejoin="round" stroke-miterlimit="3" d="
			M376.35,259.3v95.4h-59.1v94.149h59.1v276.2h116.9v-276.2h80.95l8.6-94.149h-89.55v-62.9c1.467-4.1,3.884-7.833,7.25-11.2
			c2.866-2.867,5.983-5.033,9.35-6.5H581.2V175H463.95c-23.067,1.9-43.05,11.25-59.95,28.05
			C388.1,219.05,378.883,237.8,376.35,259.3z"/>
	</g>
</g>
</svg>
