<?xml version="1.0" encoding="utf-8"?>
<!-- Generator: Adobe Illustrator 16.0.0, SVG Export Plug-In . SVG Version: 6.00 Build 0)  -->
<!DOCTYPE svg PUBLIC "-//W3C//DTD SVG 1.1//EN" "http://www.w3.org/Graphics/SVG/1.1/DTD/svg11.dtd">
<svg version="1.1" xmlns="http://www.w3.org/2000/svg" xmlns:xlink="http://www.w3.org/1999/xlink" x="0px" y="0px" width="500px"
	 height="500px" viewBox="0 0 500 500" enable-background="new 0 0 500 500" xml:space="preserve">
<g id="Layer_1">
	<g>
		<path fill-rule="evenodd" clip-rule="evenodd" fill="#710421" d="M487.9,250c0,65.7-23.233,121.767-69.7,168.2
			c-46.434,46.467-102.5,69.7-168.2,69.7s-121.783-23.233-168.25-69.7C35.317,371.767,12.1,315.7,12.1,250
			S35.317,128.217,81.75,81.75C128.217,35.317,184.3,12.1,250,12.1s121.767,23.217,168.2,69.65
			C464.667,128.217,487.9,184.3,487.9,250z"/>
		
			<path fill-rule="evenodd" clip-rule="evenodd" fill="none" stroke="#710421" stroke-linecap="round" stroke-linejoin="round" stroke-miterlimit="3" d="
			M487.9,250c0,65.7-23.233,121.767-69.7,168.2c-46.434,46.467-102.5,69.7-168.2,69.7s-121.783-23.233-168.25-69.7
			C35.317,371.767,12.1,315.7,12.1,250S35.317,128.217,81.75,81.75C128.217,35.317,184.3,12.1,250,12.1s121.767,23.217,168.2,69.65
			C464.667,128.217,487.9,184.3,487.9,250z"/>
	</g>
</g>
<g id="Layer_2">
	<g>
		<path fill-rule="evenodd" clip-rule="evenodd" fill="#FFFFFF" d="M368.7,135.3c1.733,0,3.2,0.6,4.399,1.8
			c1.233,1.233,1.851,2.717,1.851,4.45c0,0.733-0.101,1.417-0.3,2.05l-21.101,31.8c-0.3,0.7-0.733,1.333-1.3,1.9
			c-0.066,0.067-0.116,0.117-0.15,0.15c-1.199,1.233-2.666,1.85-4.399,1.85s-3.217-0.617-4.45-1.85c-1.2-1.2-1.8-2.667-1.8-4.4
			c0-1.1,0.25-2.1,0.75-3c0.166-0.333,0.383-0.65,0.649-0.95l21.851-32.4C365.833,135.767,367.167,135.3,368.7,135.3z M402.15,191.2
			c1.267,1.2,1.949,2.65,2.05,4.35c0.033,1.767-0.533,3.284-1.7,4.55c-0.5,0.533-1.05,0.933-1.65,1.2l-37.149,8.8
			c-0.7,0.267-1.45,0.433-2.25,0.5c-0.101-0.033-0.184-0.033-0.25,0c-1.7,0.066-3.184-0.483-4.45-1.65c-1.267-1.2-1.934-2.667-2-4.4
			c-0.033-1.7,0.55-3.183,1.75-4.45c0.733-0.8,1.6-1.367,2.6-1.7c0.334-0.1,0.7-0.183,1.101-0.25l38.1-8.65
			C399.767,189.567,401.05,190.133,402.15,191.2z M366.85,233.2l34.351,18.6c1.033,1,1.633,2.267,1.8,3.8
			c0.167,1.733-0.283,3.267-1.35,4.601c-1.134,1.366-2.551,2.133-4.25,2.3c-0.733,0.066-1.417,0.033-2.051-0.1l-33.75-17.9
			c-0.699-0.233-1.366-0.617-2-1.15c-0.066-0.067-0.116-0.1-0.149-0.1c-1.367-1.1-2.134-2.517-2.3-4.25
			c-0.167-1.7,0.3-3.217,1.399-4.55c1.101-1.333,2.517-2.083,4.25-2.25c1.101-0.1,2.101,0.05,3,0.45
			C366.167,232.783,366.517,232.967,366.85,233.2z M326.7,241.4l3.75,16.05c3.666-0.634,7.467-0.95,11.399-0.95
			c17.467,0,32.351,6.167,44.65,18.5c12.333,12.3,18.5,27.184,18.5,44.65c0,17.466-6.167,32.366-18.5,44.699
			c-12.3,12.301-27.184,18.45-44.65,18.45c-17.466,0-32.366-6.149-44.699-18.45c-12.301-12.333-18.45-27.233-18.45-44.699
			c0-7.934,1.267-15.317,3.8-22.15c-40.233-10.634-72.05-13.65-95.45-9.05l24.45,66.05c1.4,5.267,1.183,9.283-0.65,12.05
			c-0.567,0.834-1.267,1.55-2.1,2.15l-25.95,5.25c-6.3-1.233-11.45-5.483-15.45-12.75l-24.5-62.101c-1.7,0.167-3.434,0.25-5.2,0.25
			c-11.867,0-21.983-4.183-30.35-12.55c-8.4-8.399-12.6-18.517-12.6-30.35c0-11.867,4.2-21.983,12.6-30.35
			c8.367-8.4,18.483-12.6,30.35-12.6c0.533,0,1.083,0.017,1.65,0.05c40.934-5.533,87.55-33.783,139.851-84.75c0-0.167,0-0.333,0-0.5
			c0-2.966,1.05-5.5,3.149-7.6c2.134-2.1,4.684-3.15,7.65-3.15s5.5,1.05,7.6,3.15c0.634,0.633,1.167,1.3,1.601,2l14.55,62.75
			c6.967,0.667,13.017,3.566,18.149,8.7c5.934,5.934,8.9,13.1,8.9,21.5s-2.967,15.567-8.9,21.5
			C330.217,238.783,328.5,240.2,326.7,241.4z M358.3,293.9c1-0.801,2.167-1.2,3.5-1.2c1.634-0.066,3.05,0.467,4.25,1.6
			c1.167,1.134,1.767,2.517,1.8,4.15c0.034,1.066-0.199,2.05-0.699,2.95l-17.65,18.1l18.2,18.55c0.467,0.867,0.7,1.816,0.7,2.851
			c0,1.633-0.584,3.017-1.75,4.149c-1.134,1.167-2.517,1.75-4.15,1.75c-1.434,0-2.684-0.45-3.75-1.35l-0.95-1L341.4,327.8
			L322.6,347.05c-0.866,0.5-1.816,0.75-2.85,0.75c-1.634,0.033-3.033-0.517-4.2-1.649c-1.2-1.101-1.816-2.467-1.85-4.101
			c-0.033-1.434,0.399-2.7,1.3-3.8l0.95-0.95l17.399-17.75l-16.949-17.3l-1.051-1.05c-0.767-1.033-1.149-2.217-1.149-3.55
			c0-1.634,0.566-3.034,1.7-4.2c1.166-1.134,2.566-1.7,4.199-1.7c1.067,0,2.051,0.25,2.95,0.75l18.351,18.75L357.25,295L358.3,293.9
			z M377.7,283.05C367.667,273.017,355.55,268,341.35,268c-14.199,0-26.316,5.017-36.35,15.05s-15.05,22.15-15.05,36.351
			c0,14.199,5.017,26.316,15.05,36.35s22.15,15.05,36.35,15.05c14.2,0,26.317-5.017,36.351-15.05s15.05-22.15,15.05-36.35
			C392.75,305.2,387.733,293.083,377.7,283.05z M310.4,264.7L282.1,142.95c-32.833,32.466-66.516,56.167-101.05,71.1l14.75,61.75
			c26.934-1.267,57.334,2.8,91.2,12.2c2.733-4.6,6.116-8.934,10.15-13C301.283,270.866,305.7,267.434,310.4,264.7z"/>
		
			<path fill-rule="evenodd" clip-rule="evenodd" fill="none" stroke="#FFFFFF" stroke-linecap="round" stroke-linejoin="round" stroke-miterlimit="3" d="
			M368.7,135.3c1.733,0,3.2,0.6,4.399,1.8c1.233,1.233,1.851,2.717,1.851,4.45c0,0.733-0.101,1.417-0.3,2.05l-21.101,31.8
			c-0.3,0.7-0.733,1.333-1.3,1.9c-0.066,0.067-0.116,0.117-0.15,0.15c-1.199,1.233-2.666,1.85-4.399,1.85s-3.217-0.617-4.45-1.85
			c-1.2-1.2-1.8-2.667-1.8-4.4c0-1.1,0.25-2.1,0.75-3c0.166-0.333,0.383-0.65,0.649-0.95l21.851-32.4
			C365.833,135.767,367.167,135.3,368.7,135.3z M402.15,191.2c1.267,1.2,1.949,2.65,2.05,4.35c0.033,1.767-0.533,3.284-1.7,4.55
			c-0.5,0.533-1.05,0.933-1.65,1.2l-37.149,8.8c-0.7,0.267-1.45,0.433-2.25,0.5c-0.101-0.033-0.184-0.033-0.25,0
			c-1.7,0.066-3.184-0.483-4.45-1.65c-1.267-1.2-1.934-2.667-2-4.4c-0.033-1.7,0.55-3.183,1.75-4.45c0.733-0.8,1.6-1.367,2.6-1.7
			c0.334-0.1,0.7-0.183,1.101-0.25l38.1-8.65C399.767,189.567,401.05,190.133,402.15,191.2z M366.85,233.2l34.351,18.6
			c1.033,1,1.633,2.267,1.8,3.8c0.167,1.733-0.283,3.267-1.35,4.601c-1.134,1.366-2.551,2.133-4.25,2.3
			c-0.733,0.066-1.417,0.033-2.051-0.1l-33.75-17.9c-0.699-0.233-1.366-0.617-2-1.15c-0.066-0.067-0.116-0.1-0.149-0.1
			c-1.367-1.1-2.134-2.517-2.3-4.25c-0.167-1.7,0.3-3.217,1.399-4.55c1.101-1.333,2.517-2.083,4.25-2.25
			c1.101-0.1,2.101,0.05,3,0.45C366.167,232.783,366.517,232.967,366.85,233.2z M326.7,241.4l3.75,16.05
			c3.666-0.634,7.467-0.95,11.399-0.95c17.467,0,32.351,6.167,44.65,18.5c12.333,12.3,18.5,27.184,18.5,44.65
			c0,17.466-6.167,32.366-18.5,44.699c-12.3,12.301-27.184,18.45-44.65,18.45c-17.466,0-32.366-6.149-44.699-18.45
			c-12.301-12.333-18.45-27.233-18.45-44.699c0-7.934,1.267-15.317,3.8-22.15c-40.233-10.634-72.05-13.65-95.45-9.05l24.45,66.05
			c1.4,5.267,1.183,9.283-0.65,12.05c-0.567,0.834-1.267,1.55-2.1,2.15l-25.95,5.25c-6.3-1.233-11.45-5.483-15.45-12.75
			l-24.5-62.101c-1.7,0.167-3.434,0.25-5.2,0.25c-11.867,0-21.983-4.183-30.35-12.55c-8.4-8.399-12.6-18.517-12.6-30.35
			c0-11.867,4.2-21.983,12.6-30.35c8.367-8.4,18.483-12.6,30.35-12.6c0.533,0,1.083,0.017,1.65,0.05
			c40.934-5.533,87.55-33.783,139.851-84.75c0-0.167,0-0.333,0-0.5c0-2.966,1.05-5.5,3.149-7.6c2.134-2.1,4.684-3.15,7.65-3.15
			s5.5,1.05,7.6,3.15c0.634,0.633,1.167,1.3,1.601,2l14.55,62.75c6.967,0.667,13.017,3.566,18.149,8.7
			c5.934,5.934,8.9,13.1,8.9,21.5s-2.967,15.567-8.9,21.5C330.217,238.783,328.5,240.2,326.7,241.4z M358.3,293.9l-1.05,1.1
			l-15.85,16.25L323.05,292.5c-0.899-0.5-1.883-0.75-2.95-0.75c-1.633,0-3.033,0.566-4.199,1.7c-1.134,1.166-1.7,2.566-1.7,4.2
			c0,1.333,0.383,2.517,1.149,3.55l1.051,1.05l16.949,17.3L315.95,337.3l-0.95,0.95c-0.9,1.1-1.333,2.366-1.3,3.8
			c0.033,1.634,0.649,3,1.85,4.101c1.167,1.133,2.566,1.683,4.2,1.649c1.033,0,1.983-0.25,2.85-0.75L341.4,327.8l16.399,16.65
			l0.95,1c1.066,0.899,2.316,1.35,3.75,1.35c1.634,0,3.017-0.583,4.15-1.75c1.166-1.133,1.75-2.517,1.75-4.149
			c0-1.034-0.233-1.983-0.7-2.851l-18.2-18.55l17.65-18.1c0.5-0.9,0.733-1.884,0.699-2.95c-0.033-1.634-0.633-3.017-1.8-4.15
			c-1.2-1.133-2.616-1.666-4.25-1.6C360.467,292.7,359.3,293.1,358.3,293.9z M357.25,295c0.134-0.2,0.283-0.384,0.45-0.55
			c0.2-0.2,0.399-0.384,0.6-0.55 M377.7,283.05c10.033,10.033,15.05,22.15,15.05,36.351c0,14.199-5.017,26.316-15.05,36.35
			s-22.15,15.05-36.351,15.05c-14.199,0-26.316-5.017-36.35-15.05s-15.05-22.15-15.05-36.35c0-14.2,5.017-26.317,15.05-36.351
			S327.15,268,341.35,268C355.55,268,367.667,273.017,377.7,283.05z M358.75,345.45c-0.167-0.134-0.316-0.267-0.45-0.4
			c-0.2-0.2-0.366-0.399-0.5-0.6 M310.4,264.7L282.1,142.95c-32.833,32.466-66.516,56.167-101.05,71.1l14.75,61.75
			c26.934-1.267,57.334,2.8,91.2,12.2c2.733-4.6,6.116-8.934,10.15-13C301.283,270.866,305.7,267.434,310.4,264.7z M316.4,302.25
			c-0.167-0.134-0.334-0.283-0.5-0.45c-0.2-0.2-0.384-0.399-0.551-0.6 M315,338.25c0.134-0.167,0.267-0.316,0.4-0.45
			c0.166-0.2,0.35-0.366,0.55-0.5"/>
	</g>
</g>
</svg>
