<?xml version="1.0" encoding="utf-8"?>
<!-- Generator: Adobe Illustrator 16.0.0, SVG Export Plug-In . SVG Version: 6.00 Build 0)  -->
<!DOCTYPE svg PUBLIC "-//W3C//DTD SVG 1.1//EN" "http://www.w3.org/Graphics/SVG/1.1/DTD/svg11.dtd">
<svg version="1.1" id="Layer_1" xmlns="http://www.w3.org/2000/svg" xmlns:xlink="http://www.w3.org/1999/xlink" x="0px" y="0px"
	 width="900px" height="900px" viewBox="0 0 900 900" enable-background="new 0 0 900 900" xml:space="preserve">
<g id="Layer_1_1_">
	<g>
		<path fill="#781024" d="M732.85,732.85C654.717,810.95,560.434,850,450,850c-110.467,0-204.75-39.05-282.85-117.15
			C89.05,654.75,50,560.467,50,450s39.05-204.75,117.15-282.85S339.533,50,450,50c110.434,0,204.717,39.05,282.85,117.15
			C810.95,245.25,850,339.533,850,450S810.95,654.75,732.85,732.85z"/>
		<path fill="none" stroke="#FFFFFF" stroke-width="2" stroke-linecap="round" stroke-linejoin="round" stroke-miterlimit="3" d="
			M732.85,732.85C654.717,810.95,560.434,850,450,850c-110.467,0-204.75-39.05-282.85-117.15C89.05,654.75,50,560.467,50,450
			s39.05-204.75,117.15-282.85S339.533,50,450,50c110.434,0,204.717,39.05,282.85,117.15C810.95,245.25,850,339.533,850,450
			S810.95,654.75,732.85,732.85z"/>
	</g>
</g>
<g id="Instagram">
	<g>
		<path fill="#FFFFFF" d="M647.75,221.5c9.066,0,16.816,3.2,23.25,9.6c6.4,6.467,9.6,14.2,9.6,23.2c0,9.034-3.198,16.767-9.6,23.2
			c-6.434,6.4-14.184,9.6-23.25,9.6c-9,0-16.717-3.2-23.15-9.6c-6.333-6.433-9.5-14.167-9.5-23.2c0-9,3.167-16.733,9.5-23.2
			C631.033,224.7,638.75,221.5,647.75,221.5c-9,0-16.717,3.2-23.15,9.6c-6.333,6.467-9.5,14.2-9.5,23.2
			c0,9.034,3.167,16.767,9.5,23.2c6.435,6.4,14.15,9.6,23.15,9.6c9.066,0,16.816-3.2,23.25-9.6c6.4-6.433,9.6-14.167,9.6-23.2
			c0-9-3.198-16.733-9.6-23.2C664.566,224.7,656.816,221.5,647.75,221.5z M449.95,248.25c-55.7,0-103.284,19.717-142.75,59.15
			c-39.367,39.367-59.05,86.917-59.05,142.65c0,55.7,19.684,103.268,59.05,142.7c39.466,39.434,87.05,59.15,142.75,59.15
			c55.666,0,103.2-19.718,142.6-59.15c39.5-39.434,59.25-87,59.25-142.7c0-55.733-19.75-103.283-59.25-142.65
			C553.15,267.967,505.616,248.25,449.95,248.25z M687.3,212.5c25.167,25.033,37.75,55.283,37.75,90.75v293.3
			c0,35.467-12.583,65.733-37.75,90.8c-25,25.102-55.25,37.65-90.75,37.65h-293.3c-35.467,0-65.733-12.55-90.8-37.65
			c-25-25.065-37.5-55.333-37.5-90.8v-293.3c0-35.467,12.5-65.717,37.5-90.75c25.066-25,55.333-37.5,90.8-37.5h293.3
			C632.05,175,662.3,187.5,687.3,212.5z M565.75,450c0,31.9-11.283,59.167-33.85,81.8c-22.667,22.634-49.968,33.95-81.9,33.95
			c-31.967,0-59.267-11.316-81.9-33.95c-22.633-22.633-33.949-49.898-33.949-81.8c0-32,11.316-59.317,33.949-81.95
			c22.634-22.633,49.934-33.95,81.9-33.95c31.934,0,59.233,11.316,81.9,33.95C554.467,390.683,565.75,418,565.75,450z"/>
		<path fill="none" stroke="#FFFFFF" stroke-width="0.1" stroke-linecap="round" stroke-linejoin="round" stroke-miterlimit="3" d="
			M647.75,221.5c9.066,0,16.816,3.2,23.25,9.6c6.4,6.467,9.6,14.2,9.6,23.2c0,9.034-3.198,16.767-9.6,23.2
			c-6.434,6.4-14.184,9.6-23.25,9.6c-9,0-16.717-3.2-23.15-9.6c-6.333-6.433-9.5-14.167-9.5-23.2c0-9,3.167-16.733,9.5-23.2
			C631.033,224.7,638.75,221.5,647.75,221.5z M687.3,212.5c-25-25-55.25-37.5-90.75-37.5h-293.3c-35.467,0-65.733,12.5-90.8,37.5
			c-25,25.033-37.5,55.283-37.5,90.75v293.3c0,35.467,12.5,65.733,37.5,90.8c25.066,25.102,55.333,37.65,90.8,37.65h293.3
			c35.5,0,65.75-12.55,90.75-37.65c25.167-25.065,37.75-55.333,37.75-90.8v-293.3C725.05,267.783,712.467,237.533,687.3,212.5z
			 M449.95,248.25c55.666,0,103.2,19.717,142.6,59.15c39.5,39.367,59.25,86.917,59.25,142.65c0,55.7-19.75,103.268-59.25,142.7
			c-39.398,39.434-86.934,59.15-142.6,59.15c-55.7,0-103.284-19.718-142.75-59.15c-39.367-39.434-59.05-87-59.05-142.7
			c0-55.733,19.684-103.283,59.05-142.65C346.667,267.967,394.25,248.25,449.95,248.25z M565.75,450
			c0,31.9-11.283,59.167-33.85,81.8c-22.667,22.634-49.968,33.95-81.9,33.95c-31.967,0-59.267-11.316-81.9-33.95
			c-22.633-22.633-33.949-49.898-33.949-81.8c0-32,11.316-59.317,33.949-81.95c22.634-22.633,49.934-33.95,81.9-33.95
			c31.934,0,59.233,11.316,81.9,33.95C554.467,390.683,565.75,418,565.75,450z"/>
	</g>
</g>
</svg>
