<?xml version="1.0" encoding="utf-8"?>
<!-- Generator: Adobe Illustrator 16.0.0, SVG Export Plug-In . SVG Version: 6.00 Build 0)  -->
<!DOCTYPE svg PUBLIC "-//W3C//DTD SVG 1.1//EN" "http://www.w3.org/Graphics/SVG/1.1/DTD/svg11.dtd">
<svg version="1.1" xmlns="http://www.w3.org/2000/svg" xmlns:xlink="http://www.w3.org/1999/xlink" x="0px" y="0px" width="550px"
	 height="550px" viewBox="0 0 550 550" enable-background="new 0 0 550 550" xml:space="preserve">
<g id="Layer_4">
	<g>
		<path fill-rule="evenodd" clip-rule="evenodd" fill="#710421" d="M474.95,146v365.675c-0.417,12.517-7.084,18.775-20,18.775H94.5
			c-12.917,0-19.583-6.259-20-18.775v-473.4c0.417-12.517,7.083-18.775,20-18.775h252.95v120.35c0.654,3.758,2.754,5.808,6.3,6.15
			H474.95z"/>
		<path fill-rule="evenodd" clip-rule="evenodd" fill="#FB91AE" d="M474.95,146h-121.2c-3.546-0.342-5.646-2.392-6.3-6.15V19.5h0.1
			l127.4,125.375V146z"/>
		
			<path fill-rule="evenodd" clip-rule="evenodd" fill="none" stroke="#FFFFFF" stroke-linecap="round" stroke-linejoin="round" stroke-miterlimit="3" d="
			M474.95,146v-1.125L347.55,19.5h-0.1v120.35c0.654,3.758,2.754,5.808,6.3,6.15H474.95z M347.45,19.5H94.5
			c-12.917,0-19.583,6.258-20,18.775v473.4c0.417,12.517,7.083,18.775,20,18.775h360.45c12.916,0,19.583-6.259,20-18.775V146"/>
	</g>
</g>
<g id="Layer_2">
	<g>
		<path fill-rule="evenodd" clip-rule="evenodd" fill="#D1992A" d="M510.95,260c13.333,0,20,6.667,20,20v156.95
			c0,13.333-6.667,20-20,20h-471c-13.333,0-20-6.667-20-20V280c0-13.333,6.667-20,20-20H510.95z"/>
		
			<path fill-rule="evenodd" clip-rule="evenodd" fill="none" stroke="#FFFFFF" stroke-linecap="round" stroke-linejoin="round" stroke-miterlimit="3" d="
			M510.95,260h-471c-13.333,0-20,6.667-20,20v156.95c0,13.333,6.667,20,20,20h471c13.333,0,20-6.667,20-20V280
			C530.95,266.667,524.283,260,510.95,260z"/>
	</g>
</g>
<g id="Layer_1">
	<g>
		<path fill-rule="evenodd" clip-rule="evenodd" fill="#FFFFFF" d="M243.25,291.75c0-1.292,0.625-1.958,1.875-2h50.9
			c7.933,0.184,14.741,3.116,20.425,8.8s8.616,12.492,8.8,20.425v79.051c-0.184,7.933-3.116,14.741-8.8,20.425
			c-5.715,5.714-12.564,8.647-20.55,8.8h-51.825c-0.55-0.306-0.825-0.889-0.825-1.75V291.75z M147.25,291.25
			c0-1.292,0.625-1.958,1.875-2h50.425c7.934,0.2,14.733,3.134,20.4,8.8c5.7,5.7,8.633,12.55,8.8,20.55v22.2
			c-0.167,7.934-3.1,14.733-8.8,20.4c-5.667,5.7-12.467,8.633-20.4,8.8H177v56c0,1.333-0.667,2-2,2h-25.75c-1.333,0-2-0.667-2-2
			V291.25z M343.25,291.5c0-0.862,0.275-1.445,0.825-1.75H401c1.333,0,2,0.667,2,2V309c0,1.333-0.667,2-2,2h-26.75v34.5h23.5
			c1.333,0,2,0.667,2,2v17.25c0,1.333-0.667,2-2,2h-23.5v59.5c0,1.333-0.667,2-2,2h-27c-1.333,0-2-0.667-2-2V291.5z M199.75,338.9
			v-17.875c-0.052-2.235-0.885-4.161-2.5-5.775s-3.54-2.448-5.775-2.5H177v34.5h14.475c2.235-0.052,4.16-0.886,5.775-2.5
			C198.881,343.119,199.714,341.169,199.75,338.9z M291,315.25c-1.614-1.614-3.54-2.448-5.775-2.5H274.25v93.5h10.975
			c2.235-0.052,4.161-0.886,5.775-2.5s2.448-3.54,2.5-5.775v-76.949C293.448,318.79,292.614,316.864,291,315.25z"/>
		
			<path fill-rule="evenodd" clip-rule="evenodd" fill="none" stroke="#FFFFFF" stroke-width="0.1" stroke-linecap="round" stroke-linejoin="round" stroke-miterlimit="3" d="
			M343.25,291.5v134.75c0,1.333,0.667,2,2,2h27c1.333,0,2-0.667,2-2v-59.5h23.5c1.333,0,2-0.667,2-2V347.5c0-1.333-0.667-2-2-2
			h-23.5V311H401c1.333,0,2-0.667,2-2v-17.25c0-1.333-0.667-2-2-2h-56.925C343.525,290.055,343.25,290.638,343.25,291.5z
			 M147.25,291.25V426c0,1.333,0.667,2,2,2H175c1.333,0,2-0.667,2-2v-56h22.55c7.934-0.167,14.733-3.1,20.4-8.8
			c5.7-5.667,8.633-12.467,8.8-20.4v-22.2c-0.167-8-3.1-14.85-8.8-20.55c-5.667-5.666-12.467-8.6-20.4-8.8h-50.425
			C147.875,289.292,147.25,289.958,147.25,291.25z M243.25,291.75V425.5c0,0.861,0.275,1.444,0.825,1.75H295.9
			c7.985-0.152,14.835-3.086,20.55-8.8c5.684-5.684,8.616-12.492,8.8-20.425v-79.051c-0.184-7.933-3.116-14.741-8.8-20.425
			s-12.492-8.616-20.425-8.8h-50.9C243.875,289.792,243.25,290.458,243.25,291.75z M199.75,338.9v-17.875
			c-0.052-2.235-0.885-4.161-2.5-5.775s-3.54-2.448-5.775-2.5H177v34.5h14.475c2.235-0.052,4.16-0.886,5.775-2.5
			C198.881,343.119,199.714,341.169,199.75,338.9z M291,315.25c-1.614-1.614-3.54-2.448-5.775-2.5H274.25v93.5h10.975
			c2.235-0.052,4.161-0.886,5.775-2.5s2.448-3.54,2.5-5.775v-76.949C293.448,318.79,292.614,316.864,291,315.25z"/>
	</g>
</g>
</svg>
