<?xml version="1.0" encoding="utf-8"?>
<!-- Generator: Adobe Illustrator 16.0.0, SVG Export Plug-In . SVG Version: 6.00 Build 0)  -->
<!DOCTYPE svg PUBLIC "-//W3C//DTD SVG 1.1//EN" "http://www.w3.org/Graphics/SVG/1.1/DTD/svg11.dtd">
<svg version="1.1" id="Layer_1" xmlns="http://www.w3.org/2000/svg" xmlns:xlink="http://www.w3.org/1999/xlink" x="0px" y="0px"
	 width="900px" height="900px" viewBox="0 0 900 900" enable-background="new 0 0 900 900" xml:space="preserve">
<g id="Layer_1_1_">
	<g>
		<path fill="#781024" d="M732.85,732.85C654.717,810.95,560.434,850,450,850c-110.467,0-204.75-39.05-282.85-117.15
			C89.05,654.75,50,560.467,50,450s39.05-204.75,117.15-282.85S339.533,50,450,50c110.434,0,204.717,39.05,282.85,117.15
			C810.95,245.25,850,339.533,850,450S810.95,654.75,732.85,732.85z"/>
		<path fill="none" stroke="#FFFFFF" stroke-width="2" stroke-linecap="round" stroke-linejoin="round" stroke-miterlimit="3" d="
			M732.85,732.85C654.717,810.95,560.434,850,450,850c-110.467,0-204.75-39.05-282.85-117.15C89.05,654.75,50,560.467,50,450
			s39.05-204.75,117.15-282.85S339.533,50,450,50c110.434,0,204.717,39.05,282.85,117.15C810.95,245.25,850,339.533,850,450
			S810.95,654.75,732.85,732.85z"/>
	</g>
</g>
<g id="Phone">
	<g>
		<path fill="#FFFFFF" d="M457.65,174.6c0.198,0,0.398,0,0.6,0c1,0.066,2,0.133,3,0.2C619.783,186.167,708.7,274.45,728,439.65
			c0.066,0.399,0.133,0.8,0.2,1.199c0.133,1.268,0.2,2.583,0.2,3.95c0,7.867-2.783,14.584-8.352,20.15
			c-5.565,5.565-12.283,8.35-20.148,8.35c-7.9,0-14.635-2.783-20.2-8.35c-4.667-4.667-7.367-10.15-8.102-16.45
			c-0.1-2.5-0.267-4.933-0.5-7.3c-0.166-1.5-0.398-2.967-0.698-4.4C651.967,306.3,580.85,237.917,457.05,231.65
			c-7.633-0.133-14.183-2.933-19.649-8.4c-5.566-5.533-8.351-12.25-8.351-20.15c0-7.867,2.784-14.583,8.351-20.15
			c5.566-5.567,12.3-8.35,20.199-8.35H457.65z M457.6,295.9c0.768,0,1.5,0.033,2.2,0.1c0.066,0,0.15,0,0.25,0
			c1.134,0.067,2.25,0.217,3.352,0.45C544,307.75,591.434,354.933,605.7,438c0.267,1.167,0.467,2.4,0.6,3.7
			c0.102,1,0.15,2.033,0.15,3.1c0,7.867-2.783,14.584-8.352,20.15c-5.565,5.565-12.282,8.35-20.148,8.35
			c-7.9,0-14.634-2.783-20.2-8.35c-4.566-4.566-7.25-9.917-8.05-16.05c-0.066-0.4-0.117-0.834-0.15-1.301
			c-7.232-56.167-38.717-87.75-94.45-94.75c-6.833-0.567-12.732-3.333-17.699-8.3c-5.566-5.533-8.351-12.25-8.351-20.15
			c0-7.867,2.784-14.583,8.351-20.15S449.7,295.9,457.6,295.9z M479.45,469.5c-6.533,6.566-14.45,9.85-23.75,9.85
			c-9.268,0-17.185-3.282-23.75-9.85c-6.534-6.566-9.8-14.483-9.8-23.75s3.267-17.183,9.8-23.75c6.565-6.567,14.482-9.85,23.75-9.85
			c9.3,0,17.217,3.282,23.75,9.85c6.565,6.567,9.85,14.483,9.85,23.75S486.017,462.934,479.45,469.5z M172.1,388.6
			c38.5,41.233,80.333,60.2,125.5,56.9C252.434,448.8,210.6,429.833,172.1,388.6c-0.067-0.167-0.15-0.333-0.25-0.5
			c-2.067-57.533,18.367-102.65,61.3-135.35c8.967,74.867,38.867,131.533,89.7,170c-50.833-38.467-80.732-95.133-89.7-170
			c0.067-0.067,0.133-0.133,0.2-0.2l60.2-0.65l55.4,128.55L323.3,422.35l-0.45,0.4l-25.2,22.75h-0.05
			c54.066,86.134,119.65,142.25,196.75,168.35v-0.05l24-32.2l1.052-1.198L555.1,540.1l128.95,64l-6.95,56.4
			c-0.032,0.066-0.065,0.15-0.1,0.25c-0.167,0.2-0.3,0.4-0.4,0.6c-27.433,43.733-74.032,64.784-139.8,63.15
			c-0.133-0.033-0.283-0.066-0.45-0.1C360.517,682.3,239.1,570.366,172.1,388.6z M536.35,724.4
			c-23.833-28.302-37.8-64.802-41.898-109.5c-0.033-0.334-0.066-0.685-0.102-1.052c0.034,0.367,0.067,0.718,0.102,1.052
			C498.55,659.6,512.517,696.1,536.35,724.4z M676.6,661.35C629.5,658.983,577.1,632,519.4,580.4
			C577.1,632,629.5,658.983,676.6,661.35z"/>
		<path fill="none" stroke="#781024" stroke-width="20" stroke-linecap="round" stroke-linejoin="round" stroke-miterlimit="3" d="
			M457.65,174.6c0.198,0,0.398,0,0.6,0c1,0.066,2,0.133,3,0.2C619.783,186.167,708.7,274.45,728,439.65
			c0.066,0.399,0.133,0.8,0.2,1.199c0.133,1.268,0.2,2.583,0.2,3.95c0,7.867-2.783,14.584-8.352,20.15
			c-5.565,5.565-12.283,8.35-20.148,8.35c-7.9,0-14.635-2.783-20.2-8.35c-4.667-4.667-7.367-10.15-8.102-16.45
			c-0.1-2.5-0.267-4.933-0.5-7.3c-0.166-1.5-0.398-2.967-0.698-4.4C651.967,306.3,580.85,237.917,457.05,231.65
			c-7.633-0.133-14.183-2.933-19.649-8.4c-5.566-5.533-8.351-12.25-8.351-20.15c0-7.867,2.784-14.583,8.351-20.15
			c5.566-5.567,12.3-8.35,20.199-8.35H457.65z M457.6,295.9c0.768,0,1.5,0.033,2.2,0.1c0.066,0,0.15,0,0.25,0
			c1.134,0.067,2.25,0.217,3.352,0.45C544,307.75,591.434,354.933,605.7,438c0.267,1.167,0.467,2.4,0.6,3.7
			c0.102,1,0.15,2.033,0.15,3.1c0,7.867-2.783,14.584-8.352,20.15c-5.565,5.565-12.282,8.35-20.148,8.35
			c-7.9,0-14.634-2.783-20.2-8.35c-4.566-4.566-7.25-9.917-8.05-16.05c-0.066-0.4-0.117-0.834-0.15-1.301
			c-7.232-56.167-38.717-87.75-94.45-94.75c-6.833-0.567-12.732-3.333-17.699-8.3c-5.566-5.533-8.351-12.25-8.351-20.15
			c0-7.867,2.784-14.583,8.351-20.15S449.7,295.9,457.6,295.9z M479.45,469.5c-6.533,6.566-14.45,9.85-23.75,9.85
			c-9.268,0-17.185-3.282-23.75-9.85c-6.534-6.566-9.8-14.483-9.8-23.75s3.267-17.183,9.8-23.75c6.565-6.567,14.482-9.85,23.75-9.85
			c9.3,0,17.217,3.282,23.75,9.85c6.565,6.567,9.85,14.483,9.85,23.75S486.017,462.934,479.45,469.5z M322.85,422.75l0.45-0.4
			l25.65-41.899l-55.4-128.55l-60.2,0.65c-0.067,0.067-0.133,0.133-0.2,0.2C242.117,327.617,272.017,384.283,322.85,422.75
			l-25.2,22.75h-0.05c54.066,86.134,119.65,142.25,196.75,168.35v-0.05l24-32.2l1.052-1.198L555.1,540.1l128.95,64l-6.95,56.4
			c-0.032,0.066-0.065,0.15-0.1,0.25c-0.167,0.2-0.3,0.4-0.4,0.6c-27.433,43.733-74.032,64.784-139.8,63.15
			c-0.133-0.033-0.283-0.066-0.45-0.1C360.517,682.3,239.1,570.366,172.1,388.6c-0.1-0.067-0.184-0.15-0.25-0.25
			c0-0.067,0-0.15,0-0.25c-2.067-57.533,18.367-102.65,61.3-135.35 M536.35,724.4c-23.833-28.302-37.8-64.802-41.898-109.5
			c-0.033-0.334-0.066-0.685-0.102-1.052 M676.6,661.35C629.5,658.983,577.1,632,519.4,580.4 M172.1,388.6
			c-0.067-0.167-0.15-0.333-0.25-0.5 M172.1,388.6c38.5,41.233,80.333,60.2,125.5,56.9"/>
	</g>
</g>
</svg>
