<?xml version="1.0" encoding="utf-8"?>
<!-- Generator: Adobe Illustrator 16.0.0, SVG Export Plug-In . SVG Version: 6.00 Build 0)  -->
<!DOCTYPE svg PUBLIC "-//W3C//DTD SVG 1.1//EN" "http://www.w3.org/Graphics/SVG/1.1/DTD/svg11.dtd">
<svg version="1.1" xmlns="http://www.w3.org/2000/svg" xmlns:xlink="http://www.w3.org/1999/xlink" x="0px" y="0px" width="500px"
	 height="500px" viewBox="0 0 500 500" enable-background="new 0 0 500 500" xml:space="preserve">
<g id="Layer_1">
	<g>
		<path fill-rule="evenodd" clip-rule="evenodd" fill="#710421" d="M487.9,250c0,65.7-23.233,121.767-69.7,168.2
			c-46.434,46.467-102.5,69.7-168.2,69.7s-121.783-23.233-168.25-69.7C35.317,371.767,12.1,315.7,12.1,250
			S35.317,128.217,81.75,81.75C128.217,35.317,184.3,12.1,250,12.1s121.767,23.217,168.2,69.65
			C464.667,128.217,487.9,184.3,487.9,250z"/>
		
			<path fill-rule="evenodd" clip-rule="evenodd" fill="none" stroke="#710421" stroke-linecap="round" stroke-linejoin="round" stroke-miterlimit="3" d="
			M487.9,250c0,65.7-23.233,121.767-69.7,168.2c-46.434,46.467-102.5,69.7-168.2,69.7s-121.783-23.233-168.25-69.7
			C35.317,371.767,12.1,315.7,12.1,250S35.317,128.217,81.75,81.75C128.217,35.317,184.3,12.1,250,12.1s121.767,23.217,168.2,69.65
			C464.667,128.217,487.9,184.3,487.9,250z"/>
	</g>
</g>
<g id="Layer_3">
	<g>
		<path fill-rule="evenodd" clip-rule="evenodd" fill="#FFFFFF" d="M168.75,356.95c-6.767-0.533-12.633-3.267-17.6-8.2
			c-4.367-4.4-7-9.517-7.9-15.35v-39.65l-0.05-0.05c-0.3-0.3-0.567-0.634-0.8-1h-12.45c-2.3-0.601-4.35-1.8-6.15-3.601
			c-2.667-2.666-4-5.899-4-9.699c0-2.301,0.5-4.4,1.5-6.301c0.067-0.166,0.15-0.333,0.25-0.5c12.167-17.3,21.017-33.283,26.55-47.95
			c-0.233-3-0.35-6.033-0.35-9.1c0-31.333,11.367-58.066,34.1-80.2s50.167-33.2,82.3-33.2c32.133,0,59.566,11.067,82.3,33.2
			s34.1,48.867,34.1,80.2c0,22.733-5.983,43.05-17.95,60.95c-1.767,2.634-3.666,5.217-5.699,7.75
			c-9.634,13.967-15.267,25.8-16.9,35.5v72.35c-0.533,1.101-1.283,2.134-2.25,3.101c-1.167,1.166-2.45,2.033-3.85,2.6L214.3,398.7
			c-2.433-0.066-4.5-0.95-6.2-2.65c-1.667-1.666-2.533-3.7-2.6-6.1V362.5c-0.367-1.366-1.083-2.583-2.15-3.65
			c-0.867-0.866-1.817-1.5-2.85-1.899h-26.65H168.75z M203.05,345.7h2.5c3.233,0.267,6.034,1.583,8.4,3.95
			c2.1,2.1,3.383,4.533,3.85,7.3c0.133,0.7,0.2,1.416,0.2,2.149v26.851h106.55c0.9-0.267,1.717-0.767,2.45-1.5
			c0.3-0.3,0.55-0.601,0.75-0.9V319.9c0.033-0.134,0.066-0.284,0.1-0.45c0.434-3.066,1.351-6.601,2.75-10.601
			c3.667-10.5,10.534-24.216,20.601-41.149c2.767-3.9,5.217-7.917,7.35-12.05c6.533-12.9,9.8-27.101,9.8-42.601
			c0-27.167-10.1-50.367-30.3-69.6c-20.133-19.233-44.467-28.85-73-28.85s-52.883,9.617-73.05,28.85
			c-20.167,19.233-30.25,42.433-30.25,69.6c0,4.434,0.267,8.75,0.8,12.95l-29.2,48.7c-0.333,0.399-0.583,0.833-0.75,1.3
			c-0.233,0.533-0.35,1.1-0.35,1.7c0,1.3,0.467,2.416,1.4,3.35c0.533,0.533,1.133,0.917,1.8,1.15H147
			c-0.033,0.033-0.05,0.066-0.05,0.1c0.208-0.06,0.433-0.093,0.675-0.1h0.575c1.767,0.033,3.283,0.684,4.55,1.95
			c0.867,0.866,1.45,1.85,1.75,2.949v3.75v31.101c1.5,14.6,8.75,22.517,21.75,23.75H203.05z M254.5,220.85l0.85,0.85l1-1
			c0.233-0.133,0.45-0.3,0.65-0.5c0.233-0.2,0.417-0.417,0.55-0.65l36.5-36.85c0.566-0.2,1.184-0.3,1.851-0.3
			c1.666,0,3.1,0.6,4.3,1.8c1.233,1.2,1.85,2.65,1.85,4.35c0,1-0.217,1.917-0.649,2.75l-2.4,2.6l-40.2,42.45
			c-0.899,0.4-1.866,0.6-2.899,0.6c-1.301,0-2.467-0.317-3.5-0.95l-23.3-24.85c-0.133-0.5-0.2-1.017-0.2-1.55
			c0-1.8,0.617-3.333,1.85-4.6c1.3-1.233,2.833-1.85,4.6-1.85c0.633,0,1.25,0.083,1.85,0.25L254.5,220.85z M306.25,168.5
			c-11.2-11.2-24.717-16.8-40.55-16.8c-15.833,0-29.367,5.6-40.6,16.8c-11.2,11.2-16.8,24.733-16.8,40.6
			c0,15.833,5.6,29.35,16.8,40.55c11.233,11.2,24.767,16.8,40.6,16.8c15.833,0,29.35-5.601,40.55-16.8
			c11.233-11.2,16.85-24.717,16.85-40.55C323.1,193.233,317.483,179.7,306.25,168.5z M314.7,159.9
			c13.666,13.667,20.5,30.167,20.5,49.5c0,19.367-6.834,35.883-20.5,49.55c-13.667,13.633-30.167,20.45-49.5,20.45
			c-19.333,0-35.833-6.817-49.5-20.45c-13.667-13.667-20.5-30.184-20.5-49.55c0-19.333,6.833-35.833,20.5-49.5
			c13.667-13.667,30.167-20.5,49.5-20.5C284.533,139.4,301.033,146.233,314.7,159.9z"/>
		
			<path fill-rule="evenodd" clip-rule="evenodd" fill="none" stroke="#FFFFFF" stroke-linecap="round" stroke-linejoin="round" stroke-miterlimit="3" d="
			M168.75,356.95c-6.767-0.533-12.633-3.267-17.6-8.2c-4.367-4.4-7-9.517-7.9-15.35v-39.65l-0.05-0.05c-0.3-0.3-0.567-0.634-0.8-1
			h-12.45c-2.3-0.601-4.35-1.8-6.15-3.601c-2.667-2.666-4-5.899-4-9.699c0-2.301,0.5-4.4,1.5-6.301c0.067-0.166,0.15-0.333,0.25-0.5
			c12.167-17.3,21.017-33.283,26.55-47.95c-0.233-3-0.35-6.033-0.35-9.1c0-31.333,11.367-58.066,34.1-80.2s50.167-33.2,82.3-33.2
			c32.133,0,59.566,11.067,82.3,33.2s34.1,48.867,34.1,80.2c0,22.733-5.983,43.05-17.95,60.95c-1.767,2.634-3.666,5.217-5.699,7.75
			c-9.634,13.967-15.267,25.8-16.9,35.5v72.35c-0.533,1.101-1.283,2.134-2.25,3.101c-1.167,1.166-2.45,2.033-3.85,2.6L214.3,398.7
			c-2.433-0.066-4.5-0.95-6.2-2.65c-1.667-1.666-2.533-3.7-2.6-6.1V362.5c-0.367-1.366-1.083-2.583-2.15-3.65
			c-0.867-0.866-1.817-1.5-2.85-1.899h-26.65c-0.833,0.066-1.684,0.1-2.55,0.1S169.583,357.017,168.75,356.95h5.1 M351.2,267.7
			c2.267-3.867,4.717-7.884,7.35-12.05c6.533-12.9,9.8-27.101,9.8-42.601c0-27.167-10.1-50.367-30.3-69.6
			c-20.133-19.233-44.467-28.85-73-28.85s-52.883,9.617-73.05,28.85c-20.167,19.233-30.25,42.433-30.25,69.6
			c0,4.434,0.267,8.75,0.8,12.95l-29.2,48.7c-0.333,0.399-0.583,0.833-0.75,1.3c-0.233,0.533-0.35,1.1-0.35,1.7
			c0,1.3,0.467,2.416,1.4,3.35c0.533,0.533,1.133,0.917,1.8,1.15H147h0.625h0.575c1.767,0.033,3.283,0.684,4.55,1.95
			c0.867,0.866,1.45,1.85,1.75,2.949c0.167,0.567,0.25,1.184,0.25,1.851c0,0.666-0.083,1.3-0.25,1.899v31.101
			c1.5,14.6,8.75,22.517,21.75,23.75h26.8c0.4-0.033,0.817-0.05,1.25-0.05c0.434,0,0.85,0.017,1.25,0.05
			c3.233,0.267,6.034,1.583,8.4,3.95c2.1,2.1,3.383,4.533,3.85,7.3c0.133,0.7,0.2,1.416,0.2,2.149v26.851h106.55
			c0.9-0.267,1.717-0.767,2.45-1.5c0.3-0.3,0.55-0.601,0.75-0.9V319.9c0.033-0.134,0.066-0.284,0.1-0.45
			c0.434-3.066,1.351-6.601,2.75-10.601C334.267,298.35,341.134,284.634,351.2,267.7z M358.55,255.65
			c-2.133,4.133-4.583,8.149-7.35,12.05 M301.4,191.3c-0.301,0.567-0.7,1.1-1.2,1.6c-0.4,0.4-0.8,0.733-1.2,1l-40.2,42.45
			c-0.899,0.4-1.866,0.6-2.899,0.6c-1.301,0-2.467-0.317-3.5-0.95l-23.3-24.85c-0.133-0.5-0.2-1.017-0.2-1.55
			c0-1.8,0.617-3.333,1.85-4.6c1.3-1.233,2.833-1.85,4.6-1.85c0.633,0,1.25,0.083,1.85,0.25l17.3,17.45
			c0.233,0.066,0.483,0.1,0.75,0.1c0.4,0,0.767-0.083,1.1-0.25l1.2-1.15l36.5-36.85c0.566-0.2,1.184-0.3,1.851-0.3
			c1.666,0,3.1,0.6,4.3,1.8c1.233,1.2,1.85,2.65,1.85,4.35C302.05,189.55,301.833,190.467,301.4,191.3l-2.4,2.6 M314.7,159.9
			c13.666,13.667,20.5,30.167,20.5,49.5c0,19.367-6.834,35.883-20.5,49.55c-13.667,13.633-30.167,20.45-49.5,20.45
			c-19.333,0-35.833-6.817-49.5-20.45c-13.667-13.667-20.5-30.184-20.5-49.55c0-19.333,6.833-35.833,20.5-49.5
			c13.667-13.667,30.167-20.5,49.5-20.5C284.533,139.4,301.033,146.233,314.7,159.9z M306.25,168.5
			c11.233,11.2,16.85,24.733,16.85,40.6c0,15.833-5.616,29.35-16.85,40.55c-11.2,11.2-24.717,16.8-40.55,16.8
			c-15.833,0-29.367-5.601-40.6-16.8c-11.2-11.2-16.8-24.717-16.8-40.55c0-15.867,5.6-29.4,16.8-40.6
			c11.233-11.2,24.767-16.8,40.6-16.8C281.533,151.7,295.05,157.3,306.25,168.5z M147.625,282.2c-0.242,0.007-0.467,0.04-0.675,0.1
			c0-0.033,0.017-0.066,0.05-0.1 M154.5,290.85v-3.75 M257.55,219.55c-0.133,0.233-0.316,0.45-0.55,0.65
			c-0.2,0.2-0.417,0.367-0.65,0.5l-1,1l-0.85-0.85 M205.55,345.7h-2.5"/>
	</g>
</g>
</svg>
