<?xml version="1.0" encoding="utf-8"?>
<!-- Generator: Adobe Illustrator 16.0.0, SVG Export Plug-In . SVG Version: 6.00 Build 0)  -->
<!DOCTYPE svg PUBLIC "-//W3C//DTD SVG 1.1//EN" "http://www.w3.org/Graphics/SVG/1.1/DTD/svg11.dtd">
<svg version="1.1" id="Layer_1" xmlns="http://www.w3.org/2000/svg" xmlns:xlink="http://www.w3.org/1999/xlink" x="0px" y="0px"
	 width="900px" height="900px" viewBox="0 0 900 900" enable-background="new 0 0 900 900" xml:space="preserve">
<g id="Layer_1_1_">
	<g>
		<path fill="#781024" d="M732.85,732.85C654.717,810.95,560.434,850,450,850c-110.467,0-204.75-39.05-282.85-117.15
			C89.05,654.75,50,560.467,50,450s39.05-204.75,117.15-282.85S339.533,50,450,50c110.434,0,204.717,39.05,282.85,117.15
			C810.95,245.25,850,339.533,850,450S810.95,654.75,732.85,732.85z"/>
		<path fill="none" stroke="#FFFFFF" stroke-width="2" stroke-linecap="round" stroke-linejoin="round" stroke-miterlimit="3" d="
			M732.85,732.85C654.717,810.95,560.434,850,450,850c-110.467,0-204.75-39.05-282.85-117.15C89.05,654.75,50,560.467,50,450
			s39.05-204.75,117.15-282.85S339.533,50,450,50c110.434,0,204.717,39.05,282.85,117.15C810.95,245.25,850,339.533,850,450
			S810.95,654.75,732.85,732.85z"/>
	</g>
</g>
<g id="Layer_6">
	<path fill="#FFFFFF" d="M645.021,254.397c-51.598-51.635-120.237-80.091-193.383-80.142
		c-150.667,0-273.283,122.597-273.337,273.265c-0.038,48.146,12.546,95.175,36.485,136.6l-38.788,141.6l144.92-38.005
		c39.927,21.789,84.862,33.241,130.62,33.267h0.103c150.653,0,273.304-122.567,273.357-273.236
		C725.024,374.711,696.617,306.057,645.021,254.397 M451.641,674.824h-0.085c-40.765-0.016-80.748-10.942-115.627-31.656
		l-8.298-4.913l-85.996,22.547l22.938-83.798l-5.399-8.591c-22.743-36.189-34.739-77.989-34.723-120.877
		c0.045-125.227,101.962-227.107,227.271-227.107c60.722,0.021,117.75,23.671,160.646,66.598
		c42.896,42.927,66.503,99.996,66.48,160.696C678.803,572.938,576.888,674.824,451.641,674.824 M576.292,504.732
		c-6.844-3.398-40.442-19.929-46.671-22.194c-6.275-2.315-10.854-3.447-15.383,3.399c-4.578,6.849-17.646,22.193-21.61,26.775
		c-4.012,4.544-7.975,5.148-14.818,1.699c-6.843-3.398-28.848-10.636-54.928-33.879c-20.311-18.115-34.016-40.467-38.003-47.313
		c-3.988-6.823-0.41-10.524,2.991-13.929c3.085-3.057,6.843-7.964,10.265-11.955c3.396-3.99,4.553-6.848,6.817-11.404
		c2.29-4.558,1.133-8.548-0.566-11.947c-1.698-3.424-15.357-37.023-21.069-50.694c-5.527-13.322-11.158-11.514-15.359-11.728
		c-3.984-0.205-8.542-0.243-13.095-0.243c-4.555,0-11.938,1.7-18.216,8.547c-6.251,6.824-23.898,23.352-23.898,56.95
		c0,33.624,24.467,66.063,27.887,70.645c3.421,4.532,48.17,73.52,116.697,103.086c16.275,7.028,29.012,11.237,38.905,14.394
		c16.388,5.21,31.288,4.444,43.059,2.701c13.1-1.978,40.392-16.527,46.104-32.44c5.659-15.961,5.659-29.656,3.963-32.489
		C587.663,509.882,583.085,508.132,576.292,504.732"/>
</g>
</svg>
