<?xml version="1.0" encoding="utf-8"?>
<!-- Generator: Adobe Illustrator 16.0.0, SVG Export Plug-In . SVG Version: 6.00 Build 0)  -->
<!DOCTYPE svg PUBLIC "-//W3C//DTD SVG 1.1//EN" "http://www.w3.org/Graphics/SVG/1.1/DTD/svg11.dtd">
<svg version="1.1" id="Layer_1" xmlns="http://www.w3.org/2000/svg" xmlns:xlink="http://www.w3.org/1999/xlink" x="0px" y="0px"
	 width="2000px" height="2000px" viewBox="0 0 2000 2000" enable-background="new 0 0 2000 2000" xml:space="preserve">
<g id="Layer_2">
	<path fill="#FFFFFF" stroke="#000050" stroke-miterlimit="10" d="M47.25,340.9l804.9,591.65l137.35,101.2l139.65-102.85
		l808.8-597.65l-808.8,597.65L989.5,1033.75l-137.35-101.2L47.25,340.9c2.9-7.3,9.45-10.95,19.65-10.95h1857.65
		c5.5,0,9.968,1.1,13.4,3.3c5.1,3.3,7.649,9.217,7.649,17.75v1197.15c0,8.8-2.686,14.863-8.053,18.196L1129.15,930.9
		l808.396,635.447c-3.433,2.067-7.767,3.104-13,3.104H66.9c-7.867,0-13.583-2.283-17.15-6.854l802.4-630.05L49.75,1562.6
		c-2.767-3.433-4.15-8.25-4.15-14.446V351C45.6,347.133,46.15,343.767,47.25,340.9z"/>
</g>
<g id="Layer_1_1_">
	<g>
		<path fill="none" stroke="#084973" stroke-width="25" stroke-linecap="round" stroke-linejoin="round" stroke-miterlimit="3" d="
			M1937.95,333.25c-3.437-2.2-7.9-3.3-13.4-3.3H66.9c-10.2,0-16.75,3.65-19.65,10.95l804.9,591.65l137.35,101.2l139.65-102.85
			L1937.95,333.25z M49.75,1562.6c3.567,4.567,9.283,6.854,17.15,6.854h1857.65c5.233,0,9.567-1.033,13-3.104L1129.15,930.9
			 M1937.55,1566.35c5.367-3.333,8.05-9.396,8.05-18.196V351c0-8.533-2.55-14.45-7.646-17.75 M47.25,340.9
			c-1.1,2.867-1.65,6.233-1.65,10.1v1197.15c0,6.196,1.383,11.017,4.15,14.446l802.4-630.05"/>
	</g>
</g>
</svg>
